# xmcd
#
# Track frame offsets:
#	150
#	17873
#	35499
#	51276
#	68541
#	89643
#	106993
#	116831
#	141855
#	154107
#	180326
#	199594
#
# Disc length: 2772 seconds
#
# Revision: 1
# Processed by: cddbd v1.4PL0 Copyright (c) Steve Scherf et al.
# Submitted via: audiograbber 1.80
#
DISCID=a10ad20c
DTITLE=Jo Nesbø - Karusellmusikk
DYEAR=1900
DGENRE=
TTITLE0=Reisetips
TTITLE1=Et kyss og Istanbul
TTITLE2=Rød Karusell
TTITLE3=I himmer'n
TTITLE4=Det er så sterkt
TTITLE5=Saturn spinner
TTITLE6=Nyttårsvals
TTITLE7=Håp
TTITLE8=Stripetrøtt
TTITLE9=Gloria
TTITLE10=Penelope og Elinor
TTITLE11=Reisetips/melodika
EXTD=
EXTT0=
EXTT1=
EXTT2=
EXTT3=
EXTT4=
EXTT5=
EXTT6=
EXTT7=
EXTT8=
EXTT9=
EXTT10=
EXTT11=
PLAYORDER=
